<svg xmlns="http://www.w3.org/2000/svg" viewBox="0 0 48 48" role="img"><defs><linearGradient id="g" x1="0" y1="0" x2="1" y2="1"><stop stop-color="#364b55"/><stop offset="1" stop-color="#14262e"/></linearGradient><linearGradient id="s" x1="0" y1="0" x2="1" y2="1"><stop stop-color="#e9f5f2"/><stop offset="1" stop-color="#b9d9d2"/></linearGradient></defs><path d="M12 9c0-5 3-8 7-8s7 3 7 8-3 8-7 8h-2v17a4 4 0 0 1-8 0V13c0-2 1-3 3-4Zm24 0c0-5-3-8-7-8-1 0-2 .2-3 .7 2 2 3 4.5 3 7.3 0 4-2 7-5 8.5V34a4 4 0 0 0 8 0V13c0-2-1-3-3-4h7Z" fill="url(#s)" stroke="#71898e" stroke-width="1"/></svg>
